{
  "accessors": [
    {
      "bufferView": 2,
      "componentType": 5126,
      "count": 326,
      "max": [
        1.3691099882125854,
        1.4537800550460815,
        1.0835599899291992
      ],
      "min": [
        -1.4004000425338745,
        -1.3777999877929688,
        -1.0038199424743652
      ],
      "type": "VEC3"
    },
    {
      "bufferView": 2,
      "byteOffset": 3912,
      "componentType": 5126,
      "count": 326,
      "max": [
        0.9980837106704712,
        0.9881455302238464,
        0.9985449910163879
      ],
      "min": [
        -0.9949981570243835,
        -0.9961139559745789,
        -0.9995826482772827
      ],
      "type": "VEC3"
    },
    {
      "bufferView": 3,
      "componentType": 5126,
      "count": 326,
      "max": [
        0.8527711629867554,
        0.9993653297424316,
        0.7445006370544434,
        1.0
      ],
      "min": [
        -0.9160152077674866,
        -0.9990528225898743,
        -0.7429993152618408,
        1.0
      ],
      "type": "VEC4"
    },
    {
      "bufferView": 1,
      "componentType": 5126,
      "count": 326,
      "max": [
        1.0092999935150146,
        0.9707800149917603
      ],
      "min": [
        0.004550000187009573,
        0.03297000005841255
      ],
      "type": "VEC2"
    },
    {
      "bufferView": 1,
      "byteOffset": 2608,
      "componentType": 5126,
      "count": 326,
      "max": [
        1.0092999935150146,
        0.9707800149917603
      ],
      "min": [
        0.004550000187009573,
        0.03297000005841255
      ],
      "type": "VEC2"
    },
    {
      "bufferView": 0,
      "componentType": 5125,
      "count": 1584,
      "type": "SCALAR"
    }
  ],
  "asset": {
    "extras": {
      "author": "CookieNoir (https://sketchfab.com/cookienoir)",
      "license": "CC-BY-4.0 (http://creativecommons.org/licenses/by/4.0/)",
      "source": "https://sketchfab.com/3d-models/meteor-1635786c47dd49e09117f72138e10c65",
      "title": "Meteor"
    },
    "generator": "Sketchfab-12.68.0",
    "version": "2.0"
  },
  "bufferViews": [
    {
      "buffer": 0,
      "byteLength": 6336,
      "name": "floatBufferViews",
      "target": 34963
    },
    {
      "buffer": 0,
      "byteLength": 5216,
      "byteOffset": 6336,
      "byteStride": 8,
      "name": "floatBufferViews",
      "target": 34962
    },
    {
      "buffer": 0,
      "byteLength": 7824,
      "byteOffset": 11552,
      "byteStride": 12,
      "name": "floatBufferViews",
      "target": 34962
    },
    {
      "buffer": 0,
      "byteLength": 5216,
      "byteOffset": 19376,
      "byteStride": 16,
      "name": "floatBufferViews",
      "target": 34962
    }
  ],
  "buffers": [
    {
      "byteLength": 24592,
      "uri": "scene.bin"
    }
  ],
  "extensionsRequired": [
    "KHR_materials_pbrSpecularGlossiness"
  ],
  "extensionsUsed": [
    "KHR_materials_pbrSpecularGlossiness"
  ],
  "images": [
    {
      "uri": "textures/Material.001_diffuse.png"
    },
    {
      "uri": "textures/Material.001_specularGlossiness.png"
    },
    {
      "uri": "textures/Material.001_emissive.png"
    },
    {
      "uri": "textures/Material.001_normal.png"
    },
    {
      "uri": "textures/Material.001_occlusion.png"
    }
  ],
  "materials": [
    {
      "doubleSided": true,
      "emissiveFactor": [
        0.30000000000000004,
        0.30000000000000004,
        0.30000000000000004
      ],
      "emissiveTexture": {
        "index": 2
      },
      "extensions": {
        "KHR_materials_pbrSpecularGlossiness": {
          "diffuseFactor": [
            1.0,
            1.0,
            1.0,
            1.0
          ],
          "diffuseTexture": {
            "index": 0
          },
          "glossinessFactor": 1.0,
          "specularFactor": [
            1.0,
            1.0,
            1.0
          ],
          "specularGlossinessTexture": {
            "index": 1
          }
        }
      },
      "name": "Material.001",
      "normalTexture": {
        "index": 3,
        "scale": 0.5
      },
      "occlusionTexture": {
        "index": 4
      }
    }
  ],
  "meshes": [
    {
      "name": "Sphere_0",
      "primitives": [
        {
          "attributes": {
            "NORMAL": 1,
            "POSITION": 0,
            "TANGENT": 2,
            "TEXCOORD_0": 3,
            "TEXCOORD_1": 4
          },
          "indices": 5,
          "material": 0,
          "mode": 4
        }
      ]
    }
  ],
  "nodes": [
    {
      "children": [
        1
      ],
      "matrix": [
        1.0,
        0.0,
        0.0,
        0.0,
        0.0,
        2.220446049250313e-16,
        -1.0,
        0.0,
        0.0,
        1.0,
        2.220446049250313e-16,
        0.0,
        0.0,
        0.0,
        0.0,
        1.0
      ],
      "name": "Sketchfab_model"
    },
    {
      "children": [
        2,
        4
      ],
      "name": "Root"
    },
    {
      "children": [
        3
      ],
      "matrix": [
        -0.29086000000000006,
        0.9551700000000001,
        -0.05519000000000001,
        0.0,
        -0.7711,
        -0.19988000000000003,
        0.6045200000000001,
        0.0,
        0.5663900000000001,
        0.21839000000000003,
        0.7946700000000001,
        0.0,
        4.076250000000001,
        1.00545,
        5.903860000000001,
        1.0
      ],
      "name": "Lamp"
    },
    {
      "name": "Lamp"
    },
    {
      "children": [
        5
      ],
      "name": "Sphere"
    },
    {
      "mesh": 0,
      "name": "Sphere_0"
    }
  ],
  "samplers": [
    {
      "magFilter": 9729,
      "minFilter": 9987,
      "wrapS": 10497,
      "wrapT": 10497
    }
  ],
  "scene": 0,
  "scenes": [
    {
      "name": "Sketchfab_Scene",
      "nodes": [
        0
      ]
    }
  ],
  "textures": [
    {
      "sampler": 0,
      "source": 0
    },
    {
      "sampler": 0,
      "source": 1
    },
    {
      "sampler": 0,
      "source": 2
    },
    {
      "sampler": 0,
      "source": 3
    },
    {
      "sampler": 0,
      "source": 4
    }
  ]
}
