{
  "accessors": [
    {
      "bufferView": 3,
      "componentType": 5126,
      "count": 377,
      "max": [
        88.61969757080078,
        217.22618103027344,
        65.80916595458984
      ],
      "min": [
        -88.61990356445313,
        -3.670318603515625,
        -96.51939392089844
      ],
      "type": "VEC3"
    },
    {
      "bufferView": 3,
      "byteOffset": 4524,
      "componentType": 5126,
      "count": 377,
      "max": [
        0.9998608231544495,
        0.9928061366081238,
        1.0
      ],
      "min": [
        -0.9998610019683838,
        -0.9659258723258972,
        -0.9822226166725159
      ],
      "type": "VEC3"
    },
    {
      "bufferView": 4,
      "componentType": 5126,
      "count": 377,
      "max": [
        1.0,
        0.9612290263175964,
        0.9945269227027893,
        1.0
      ],
      "min": [
        -0.9942716956138611,
        -0.9611896276473999,
        -0.9943237900733948,
        1.0
      ],
      "type": "VEC4"
    },
    {
      "bufferView": 2,
      "componentType": 5126,
      "count": 377,
      "max": [
        0.9897174835205078,
        0.9860219955444336
      ],
      "min": [
        0.008594847284257412,
        0.08383099734783173
      ],
      "type": "VEC2"
    },
    {
      "bufferView": 1,
      "componentType": 5125,
      "count": 1920,
      "type": "SCALAR"
    },
    {
      "bufferView": 5,
      "componentType": 5126,
      "count": 6,
      "max": [
        1.0,
        1.548904151604802e-07,
        0.0,
        0.0,
        0.99372398853302,
        1.0,
        2.70260073875761e-07,
        0.0,
        0.9999998807907104,
        5.2207170471484446e-14,
        1.0,
        0.0,
        0.8238033652305603,
        10.183951377868652,
        22.95828628540039,
        1.0
      ],
      "min": [
        2.348547525343747e-07,
        -1.629207559972201e-07,
        -1.0,
        0.0,
        -6.3108857371353254e-30,
        -0.12327969819307327,
        -1.6292077020807483e-07,
        0.0,
        -0.12327969819307327,
        -0.99372398853302,
        -7.814917779569441e-08,
        0.0,
        -81.05803680419922,
        -135.6776580810547,
        -22.958276748657227,
        1.0
      ],
      "type": "MAT4"
    },
    {
      "bufferView": 0,
      "componentType": 5123,
      "count": 377,
      "type": "VEC4"
    },
    {
      "bufferView": 4,
      "byteOffset": 6032,
      "componentType": 5126,
      "count": 377,
      "max": [
        1.0,
        0.5,
        0.0,
        0.0
      ],
      "min": [
        0.5,
        0.0,
        0.0,
        0.0
      ],
      "type": "VEC4"
    },
    {
      "bufferView": 6,
      "componentType": 5126,
      "count": 2,
      "max": [
        3.3333332538604736
      ],
      "min": [
        0.0
      ],
      "type": "SCALAR"
    },
    {
      "bufferView": 7,
      "componentType": 5126,
      "count": 2,
      "max": [
        -0.00010585261043161154,
        121.53363800048828,
        -8.552032470703125
      ],
      "min": [
        -0.00010585261043161154,
        121.53363800048828,
        -8.552032470703125
      ],
      "type": "VEC3"
    },
    {
      "bufferView": 6,
      "byteOffset": 8,
      "componentType": 5126,
      "count": 2,
      "max": [
        3.3333332538604736
      ],
      "min": [
        0.0
      ],
      "type": "SCALAR"
    },
    {
      "bufferView": 7,
      "byteOffset": 24,
      "componentType": 5126,
      "count": 2,
      "max": [
        1.0,
        1.0,
        1.0
      ],
      "min": [
        1.0,
        1.0,
        1.0
      ],
      "type": "VEC3"
    },
    {
      "bufferView": 6,
      "byteOffset": 16,
      "componentType": 5126,
      "count": 2,
      "max": [
        3.3333332538604736
      ],
      "min": [
        0.0
      ],
      "type": "SCALAR"
    },
    {
      "bufferView": 8,
      "componentType": 5126,
      "count": 2,
      "max": [
        -0.7071067690849304,
        -0.0,
        0.0,
        0.7071067690849304
      ],
      "min": [
        -0.7071067690849304,
        -0.0,
        0.0,
        0.7071067690849304
      ],
      "type": "VEC4"
    },
    {
      "bufferView": 6,
      "byteOffset": 24,
      "componentType": 5126,
      "count": 2,
      "max": [
        3.3333332538604736
      ],
      "min": [
        0.0
      ],
      "type": "SCALAR"
    },
    {
      "bufferView": 7,
      "byteOffset": 48,
      "componentType": 5126,
      "count": 2,
      "max": [
        49.15312957763672,
        -42.21515655517578,
        -22.95824432373047
      ],
      "min": [
        49.15312957763672,
        -42.21515655517578,
        -22.95824432373047
      ],
      "type": "VEC3"
    },
    {
      "bufferView": 6,
      "byteOffset": 32,
      "componentType": 5126,
      "count": 2,
      "max": [
        3.3333332538604736
      ],
      "min": [
        0.0
      ],
      "type": "SCALAR"
    },
    {
      "bufferView": 7,
      "byteOffset": 72,
      "componentType": 5126,
      "count": 2,
      "max": [
        1.0,
        1.0,
        1.0
      ],
      "min": [
        1.0,
        1.0,
        1.0
      ],
      "type": "VEC3"
    },
    {
      "bufferView": 6,
      "byteOffset": 40,
      "componentType": 5126,
      "count": 98,
      "max": [
        3.3333332538604736
      ],
      "min": [
        0.0
      ],
      "type": "SCALAR"
    },
    {
      "bufferView": 8,
      "byteOffset": 32,
      "componentType": 5126,
      "count": 98,
      "max": [
        0.047252122312784195,
        0.06914489716291428,
        -0.6905762553215027,
        0.722162127494812
      ],
      "min": [
        -0.16622307896614075,
        -0.12403953820466995,
        -0.8066197037696838,
        0.5906690955162048
      ],
      "type": "VEC4"
    },
    {
      "bufferView": 6,
      "byteOffset": 432,
      "componentType": 5126,
      "count": 2,
      "max": [
        3.3333332538604736
      ],
      "min": [
        0.0
      ],
      "type": "SCALAR"
    },
    {
      "bufferView": 7,
      "byteOffset": 96,
      "componentType": 5126,
      "count": 2,
      "max": [
        49.15311813354492,
        -42.21515655517578,
        22.95831871032715
      ],
      "min": [
        49.15311813354492,
        -42.21515655517578,
        22.95831871032715
      ],
      "type": "VEC3"
    },
    {
      "bufferView": 6,
      "byteOffset": 440,
      "componentType": 5126,
      "count": 2,
      "max": [
        3.3333332538604736
      ],
      "min": [
        0.0
      ],
      "type": "SCALAR"
    },
    {
      "bufferView": 7,
      "byteOffset": 120,
      "componentType": 5126,
      "count": 2,
      "max": [
        1.0,
        1.0,
        1.0
      ],
      "min": [
        1.0,
        1.0,
        1.0
      ],
      "type": "VEC3"
    },
    {
      "bufferView": 6,
      "byteOffset": 448,
      "componentType": 5126,
      "count": 98,
      "max": [
        3.3333332538604736
      ],
      "min": [
        0.0
      ],
      "type": "SCALAR"
    },
    {
      "bufferView": 8,
      "byteOffset": 1600,
      "componentType": 5126,
      "count": 98,
      "max": [
        0.047252122312784195,
        0.06914489716291428,
        -0.6905762553215027,
        0.722162127494812
      ],
      "min": [
        -0.16622307896614075,
        -0.12403953820466995,
        -0.8066197037696838,
        0.5906690955162048
      ],
      "type": "VEC4"
    },
    {
      "bufferView": 6,
      "byteOffset": 840,
      "componentType": 5126,
      "count": 8,
      "max": [
        3.3333332538604736
      ],
      "min": [
        0.0
      ],
      "type": "SCALAR"
    },
    {
      "bufferView": 7,
      "byteOffset": 144,
      "componentType": 5126,
      "count": 8,
      "max": [
        39.00889587402344,
        -5.9604641222676946e-08,
        4.155096121394308e-06
      ],
      "min": [
        39.00889587402344,
        -5.960464477539063e-08,
        4.155096121394308e-06
      ],
      "type": "VEC3"
    },
    {
      "bufferView": 6,
      "byteOffset": 872,
      "componentType": 5126,
      "count": 2,
      "max": [
        3.3333332538604736
      ],
      "min": [
        0.0
      ],
      "type": "SCALAR"
    },
    {
      "bufferView": 7,
      "byteOffset": 240,
      "componentType": 5126,
      "count": 2,
      "max": [
        1.0000001192092896,
        1.0000001192092896,
        1.0
      ],
      "min": [
        1.0000001192092896,
        1.0000001192092896,
        1.0
      ],
      "type": "VEC3"
    },
    {
      "bufferView": 6,
      "byteOffset": 880,
      "componentType": 5126,
      "count": 101,
      "max": [
        3.3333332538604736
      ],
      "min": [
        0.0
      ],
      "type": "SCALAR"
    },
    {
      "bufferView": 8,
      "byteOffset": 3168,
      "componentType": 5126,
      "count": 101,
      "max": [
        0.056644514203071594,
        0.01399336289614439,
        0.16633211076259613,
        0.9953640699386597
      ],
      "min": [
        -0.09027113020420074,
        -0.021359682083129883,
        0.09070974588394165,
        0.9829836487770081
      ],
      "type": "VEC4"
    },
    {
      "bufferView": 6,
      "byteOffset": 1284,
      "componentType": 5126,
      "count": 2,
      "max": [
        3.3333332538604736
      ],
      "min": [
        0.0
      ],
      "type": "SCALAR"
    },
    {
      "bufferView": 7,
      "byteOffset": 264,
      "componentType": 5126,
      "count": 2,
      "max": [
        40.555484771728516,
        -1.0132789611816406e-06,
        -3.2518903481104644e-07
      ],
      "min": [
        40.555484771728516,
        -1.0132789611816406e-06,
        -3.2518903481104644e-07
      ],
      "type": "VEC3"
    },
    {
      "bufferView": 6,
      "byteOffset": 1292,
      "componentType": 5126,
      "count": 2,
      "max": [
        3.3333332538604736
      ],
      "min": [
        0.0
      ],
      "type": "SCALAR"
    },
    {
      "bufferView": 7,
      "byteOffset": 288,
      "componentType": 5126,
      "count": 2,
      "max": [
        1.0,
        1.0,
        1.0
      ],
      "min": [
        1.0,
        1.0,
        1.0
      ],
      "type": "VEC3"
    },
    {
      "bufferView": 6,
      "byteOffset": 1300,
      "componentType": 5126,
      "count": 101,
      "max": [
        3.3333332538604736
      ],
      "min": [
        0.0
      ],
      "type": "SCALAR"
    },
    {
      "bufferView": 8,
      "byteOffset": 4784,
      "componentType": 5126,
      "count": 101,
      "max": [
        0.056500110775232315,
        0.00629908312112093,
        0.14470510184764862,
        0.9972749948501587
      ],
      "min": [
        -0.08554525673389435,
        -0.031877029687166214,
        0.06723355501890182,
        0.9865058064460754
      ],
      "type": "VEC4"
    },
    {
      "bufferView": 6,
      "byteOffset": 1704,
      "componentType": 5126,
      "count": 1,
      "max": [
        0.0
      ],
      "min": [
        0.0
      ],
      "type": "SCALAR"
    },
    {
      "bufferView": 8,
      "byteOffset": 6400,
      "componentType": 5126,
      "count": 1,
      "max": [
        -0.4192252457141876,
        -0.5694297552108765,
        0.4192250370979309,
        0.5694298148155212
      ],
      "min": [
        -0.4192252457141876,
        -0.5694297552108765,
        0.4192250370979309,
        0.5694298148155212
      ],
      "type": "VEC4"
    }
  ],
  "animations": [
    {
      "channels": [
        {
          "sampler": 0,
          "target": {
            "node": 13,
            "path": "translation"
          }
        },
        {
          "sampler": 1,
          "target": {
            "node": 13,
            "path": "scale"
          }
        },
        {
          "sampler": 2,
          "target": {
            "node": 13,
            "path": "rotation"
          }
        },
        {
          "sampler": 3,
          "target": {
            "node": 11,
            "path": "translation"
          }
        },
        {
          "sampler": 4,
          "target": {
            "node": 11,
            "path": "scale"
          }
        },
        {
          "sampler": 5,
          "target": {
            "node": 11,
            "path": "rotation"
          }
        },
        {
          "sampler": 6,
          "target": {
            "node": 12,
            "path": "translation"
          }
        },
        {
          "sampler": 7,
          "target": {
            "node": 12,
            "path": "scale"
          }
        },
        {
          "sampler": 8,
          "target": {
            "node": 12,
            "path": "rotation"
          }
        },
        {
          "sampler": 9,
          "target": {
            "node": 10,
            "path": "translation"
          }
        },
        {
          "sampler": 10,
          "target": {
            "node": 10,
            "path": "scale"
          }
        },
        {
          "sampler": 11,
          "target": {
            "node": 10,
            "path": "rotation"
          }
        },
        {
          "sampler": 12,
          "target": {
            "node": 9,
            "path": "translation"
          }
        },
        {
          "sampler": 13,
          "target": {
            "node": 9,
            "path": "scale"
          }
        },
        {
          "sampler": 14,
          "target": {
            "node": 9,
            "path": "rotation"
          }
        },
        {
          "sampler": 15,
          "target": {
            "node": 8,
            "path": "rotation"
          }
        }
      ],
      "name": "Take 001",
      "samplers": [
        {
          "input": 8,
          "interpolation": "LINEAR",
          "output": 9
        },
        {
          "input": 10,
          "interpolation": "LINEAR",
          "output": 11
        },
        {
          "input": 12,
          "interpolation": "LINEAR",
          "output": 13
        },
        {
          "input": 14,
          "interpolation": "LINEAR",
          "output": 15
        },
        {
          "input": 16,
          "interpolation": "LINEAR",
          "output": 17
        },
        {
          "input": 18,
          "interpolation": "LINEAR",
          "output": 19
        },
        {
          "input": 20,
          "interpolation": "LINEAR",
          "output": 21
        },
        {
          "input": 22,
          "interpolation": "LINEAR",
          "output": 23
        },
        {
          "input": 24,
          "interpolation": "LINEAR",
          "output": 25
        },
        {
          "input": 26,
          "interpolation": "LINEAR",
          "output": 27
        },
        {
          "input": 28,
          "interpolation": "LINEAR",
          "output": 29
        },
        {
          "input": 30,
          "interpolation": "LINEAR",
          "output": 31
        },
        {
          "input": 32,
          "interpolation": "LINEAR",
          "output": 33
        },
        {
          "input": 34,
          "interpolation": "LINEAR",
          "output": 35
        },
        {
          "input": 36,
          "interpolation": "LINEAR",
          "output": 37
        },
        {
          "input": 38,
          "interpolation": "LINEAR",
          "output": 39
        }
      ]
    }
  ],
  "asset": {
    "extras": {
      "author": "Willy Decarpentrie (https://sketchfab.com/skudgee)",
      "license": "CC-BY-4.0 (http://creativecommons.org/licenses/by/4.0/)",
      "source": "https://sketchfab.com/3d-models/alien-c8da20ee647b4bda8b164d442b13ab4a",
      "title": "Alien"
    },
    "generator": "Sketchfab-12.68.0",
    "version": "2.0"
  },
  "bufferViews": [
    {
      "buffer": 0,
      "byteLength": 3016,
      "byteStride": 8,
      "name": "shortBufferViews",
      "target": 34962
    },
    {
      "buffer": 0,
      "byteLength": 7680,
      "byteOffset": 3016,
      "name": "floatBufferViews",
      "target": 34963
    },
    {
      "buffer": 0,
      "byteLength": 3016,
      "byteOffset": 10696,
      "byteStride": 8,
      "name": "floatBufferViews",
      "target": 34962
    },
    {
      "buffer": 0,
      "byteLength": 9048,
      "byteOffset": 13712,
      "byteStride": 12,
      "name": "floatBufferViews",
      "target": 34962
    },
    {
      "buffer": 0,
      "byteLength": 12064,
      "byteOffset": 22760,
      "byteStride": 16,
      "name": "floatBufferViews",
      "target": 34962
    },
    {
      "buffer": 0,
      "byteLength": 384,
      "byteOffset": 34824,
      "name": "floatBufferViews"
    },
    {
      "buffer": 0,
      "byteLength": 1708,
      "byteOffset": 35208,
      "name": "floatBufferViews"
    },
    {
      "buffer": 0,
      "byteLength": 312,
      "byteOffset": 36916,
      "byteStride": 12,
      "name": "floatBufferViews"
    },
    {
      "buffer": 0,
      "byteLength": 6416,
      "byteOffset": 37228,
      "byteStride": 16,
      "name": "floatBufferViews"
    }
  ],
  "buffers": [
    {
      "byteLength": 43644,
      "uri": "scene.bin"
    }
  ],
  "extensionsRequired": [
    "KHR_materials_pbrSpecularGlossiness"
  ],
  "extensionsUsed": [
    "KHR_materials_pbrSpecularGlossiness"
  ],
  "images": [
    {
      "uri": "textures/Skin_diffuse.jpeg"
    },
    {
      "uri": "textures/Skin_specularGlossiness.png"
    },
    {
      "uri": "textures/Skin_normal.jpeg"
    },
    {
      "uri": "textures/Skin_occlusion.png"
    }
  ],
  "materials": [
    {
      "doubleSided": true,
      "extensions": {
        "KHR_materials_pbrSpecularGlossiness": {
          "diffuseFactor": [
            1.0,
            1.0,
            1.0,
            1.0
          ],
          "diffuseTexture": {
            "index": 0
          },
          "glossinessFactor": 1.0,
          "specularFactor": [
            1.0,
            1.0,
            1.0
          ],
          "specularGlossinessTexture": {
            "index": 1
          }
        }
      },
      "name": "Skin",
      "normalTexture": {
        "index": 2
      },
      "occlusionTexture": {
        "index": 3
      }
    }
  ],
  "meshes": [
    {
      "name": "Sectoid_Skin_0",
      "primitives": [
        {
          "attributes": {
            "JOINTS_0": 6,
            "NORMAL": 1,
            "POSITION": 0,
            "TANGENT": 2,
            "TEXCOORD_0": 3,
            "WEIGHTS_0": 7
          },
          "indices": 4,
          "material": 0,
          "mode": 4
        }
      ]
    }
  ],
  "nodes": [
    {
      "children": [
        1
      ],
      "matrix": [
        1.0,
        0.0,
        0.0,
        0.0,
        0.0,
        2.220446049250313e-16,
        -1.0,
        0.0,
        0.0,
        1.0,
        2.220446049250313e-16,
        0.0,
        0.0,
        0.0,
        0.0,
        1.0
      ],
      "name": "Sketchfab_model"
    },
    {
      "children": [
        2
      ],
      "matrix": [
        1.0,
        0.0,
        0.0,
        0.0,
        0.0,
        0.0,
        1.0,
        0.0,
        0.0,
        -1.0,
        0.0,
        0.0,
        0.0,
        0.0,
        0.0,
        1.0
      ],
      "name": "Alien.FBX"
    },
    {
      "children": [
        3
      ],
      "name": "Object_2"
    },
    {
      "children": [
        4
      ],
      "name": "RootNode"
    },
    {
      "children": [
        5,
        7,
        6,
        13
      ],
      "name": "Object_4"
    },
    {
      "children": [
        8
      ],
      "name": "_rootJoint"
    },
    {
      "matrix": [
        1.0,
        -2.6469779601696886e-23,
        5.293955920339377e-23,
        0.0,
        5.293955920339377e-23,
        6.123233995736766e-17,
        -1.0,
        0.0,
        2.646977960169688e-23,
        0.9999999999999999,
        6.123233995736765e-17,
        0.0,
        -2.558408596087247e-06,
        84.42417907714847,
        58.52960205078124,
        1.0
      ],
      "name": "Object_6"
    },
    {
      "mesh": 0,
      "name": "Object_7",
      "skin": 0
    },
    {
      "children": [
        9
      ],
      "name": "b_root_00",
      "rotation": [
        -0.41922521591186523,
        -0.5694297552108765,
        0.4192250370979309,
        0.5694298148155212
      ],
      "translation": [
        7.122807801351883e-07,
        4.20562744140625,
        -16.295089721679688
      ]
    },
    {
      "children": [
        10
      ],
      "name": "b_neck_01",
      "rotation": [
        -0.048631154000759125,
        -0.021639348939061165,
        0.08149195462465286,
        0.9952516555786133
      ],
      "translation": [
        40.55548858642578,
        -1.9073486328125e-06,
        -3.251882390031824e-07
      ]
    },
    {
      "children": [
        11,
        12
      ],
      "name": "b_head_02",
      "rotation": [
        -0.052101828157901764,
        -0.010892285965383053,
        0.10447432845830917,
        0.9931022524833679
      ],
      "scale": [
        1.0000001192092896,
        1.0000001192092896,
        1.0
      ],
      "translation": [
        39.0088996887207,
        -1.9073486328125e-06,
        3.904104232788086e-06
      ]
    },
    {
      "name": "b_EyeL_03",
      "rotation": [
        1.441539438928885e-07,
        -1.5349922932728077e-07,
        -0.7494264245033264,
        0.662087619304657
      ],
      "translation": [
        49.15312194824219,
        -42.21516036987305,
        -22.958242416381836
      ]
    },
    {
      "name": "b_eyeR_04",
      "rotation": [
        1.441539438928885e-07,
        -1.5349922932728077e-07,
        -0.7494264245033264,
        0.662087619304657
      ],
      "translation": [
        49.15312194824219,
        -42.21515655517578,
        22.958316802978516
      ]
    },
    {
      "name": "Sectoid",
      "rotation": [
        -0.7071068286895752,
        -0.0,
        0.0,
        0.7071068286895752
      ],
      "translation": [
        -0.00010585261043161154,
        121.53363800048828,
        -8.552032470703125
      ]
    }
  ],
  "samplers": [
    {
      "magFilter": 9729,
      "minFilter": 9987,
      "wrapS": 10497,
      "wrapT": 10497
    }
  ],
  "scene": 0,
  "scenes": [
    {
      "name": "Sketchfab_Scene",
      "nodes": [
        0
      ]
    }
  ],
  "skins": [
    {
      "inverseBindMatrices": 5,
      "joints": [
        5,
        8,
        9,
        10,
        11,
        12
      ],
      "skeleton": 5
    }
  ],
  "textures": [
    {
      "sampler": 0,
      "source": 0
    },
    {
      "sampler": 0,
      "source": 1
    },
    {
      "sampler": 0,
      "source": 2
    },
    {
      "sampler": 0,
      "source": 3
    }
  ]
}
