{
  "accessors": [
    {
      "bufferView": 2,
      "componentType": 5126,
      "count": 21695,
      "max": [
        173.5613555908203,
        159.18048095703125,
        36.552467346191406
      ],
      "min": [
        -173.5613555908203,
        0.0,
        -36.552467346191406
      ],
      "type": "VEC3"
    },
    {
      "bufferView": 2,
      "byteOffset": 260340,
      "componentType": 5126,
      "count": 21695,
      "max": [
        0.9999997615814209,
        1.0,
        0.9999994039535522
      ],
      "min": [
        -0.9999997615814209,
        -1.0,
        -0.9999964833259583
      ],
      "type": "VEC3"
    },
    {
      "bufferView": 1,
      "componentType": 5126,
      "count": 21695,
      "max": [
        0.9952716827392578,
        0.9956482648849487
      ],
      "min": [
        0.004252402111887932,
        0.00426095724105835
      ],
      "type": "VEC2"
    },
    {
      "bufferView": 1,
      "byteOffset": 173560,
      "componentType": 5126,
      "count": 21695,
      "max": [
        0.9952716827392578,
        0.9956482648849487
      ],
      "min": [
        0.004252402111887932,
        0.00426095724105835
      ],
      "type": "VEC2"
    },
    {
      "bufferView": 1,
      "byteOffset": 347120,
      "componentType": 5126,
      "count": 21695,
      "max": [
        0.9952716827392578,
        0.9956482648849487
      ],
      "min": [
        0.004252402111887932,
        0.00426095724105835
      ],
      "type": "VEC2"
    },
    {
      "bufferView": 0,
      "componentType": 5125,
      "count": 104943,
      "type": "SCALAR"
    }
  ],
  "asset": {
    "extras": {
      "author": "apsarinareswari (https://sketchfab.com/apsarinareswari)",
      "license": "CC-BY-4.0 (http://creativecommons.org/licenses/by/4.0/)",
      "source": "https://sketchfab.com/3d-models/satelit-buatan-67b76de14aff422192d7cd28f1d8c44a",
      "title": "Satelit Buatan"
    },
    "generator": "Sketchfab-15.12.0",
    "version": "2.0"
  },
  "bufferViews": [
    {
      "buffer": 0,
      "byteLength": 419772,
      "name": "floatBufferViews",
      "target": 34963
    },
    {
      "buffer": 0,
      "byteLength": 520680,
      "byteOffset": 419772,
      "byteStride": 8,
      "name": "floatBufferViews",
      "target": 34962
    },
    {
      "buffer": 0,
      "byteLength": 520680,
      "byteOffset": 940452,
      "byteStride": 12,
      "name": "floatBufferViews",
      "target": 34962
    }
  ],
  "buffers": [
    {
      "byteLength": 1461132,
      "uri": "scene.bin"
    }
  ],
  "extensionsRequired": [
    "KHR_materials_pbrSpecularGlossiness"
  ],
  "extensionsUsed": [
    "KHR_materials_pbrSpecularGlossiness"
  ],
  "images": [
    {
      "uri": "textures/material_diffuse.png"
    },
    {
      "uri": "textures/material_specularGlossiness.png"
    }
  ],
  "materials": [
    {
      "doubleSided": true,
      "extensions": {
        "KHR_materials_pbrSpecularGlossiness": {
          "diffuseFactor": [
            1.0,
            1.0,
            1.0,
            1.0
          ],
          "diffuseTexture": {
            "index": 0
          },
          "glossinessFactor": 1.0,
          "specularFactor": [
            1.0,
            1.0,
            1.0
          ],
          "specularGlossinessTexture": {
            "index": 1
          }
        }
      },
      "name": "material"
    }
  ],
  "meshes": [
    {
      "name": "Object_0",
      "primitives": [
        {
          "attributes": {
            "NORMAL": 1,
            "POSITION": 0,
            "TEXCOORD_0": 2,
            "TEXCOORD_1": 3,
            "TEXCOORD_2": 4
          },
          "indices": 5,
          "material": 0,
          "mode": 4
        }
      ]
    }
  ],
  "nodes": [
    {
      "children": [
        1
      ],
      "matrix": [
        1.0,
        0.0,
        0.0,
        0.0,
        0.0,
        2.220446049250313e-16,
        -1.0,
        0.0,
        0.0,
        1.0,
        2.220446049250313e-16,
        0.0,
        0.0,
        0.0,
        0.0,
        1.0
      ],
      "name": "Sketchfab_model"
    },
    {
      "children": [
        2
      ],
      "name": "root"
    },
    {
      "children": [
        3
      ],
      "matrix": [
        1.0,
        0.0,
        0.0,
        0.0,
        0.0,
        2.220446049250313e-16,
        1.0,
        0.0,
        0.0,
        -1.0,
        2.220446049250313e-16,
        0.0,
        0.0,
        0.0,
        0.0,
        1.0
      ],
      "name": "GLTF_SceneRootNode"
    },
    {
      "children": [
        4
      ],
      "name": "root_0"
    },
    {
      "children": [
        5
      ],
      "matrix": [
        0.0014281024059512022,
        -0.0003001306719174355,
        0.00021452140919112588,
        0.0,
        0.00019922340163611277,
        0.0013492966609887959,
        0.0005615005734597188,
        0.0,
        -0.0003104962020178248,
        -0.0005146789655012583,
        0.0013469491483027972,
        0.0,
        -0.015856005251407623,
        -0.107390858232975,
        0.211309552192688,
        1.0
      ],
      "name": "node_id38_1"
    },
    {
      "mesh": 0,
      "name": "Object_5"
    }
  ],
  "samplers": [
    {
      "magFilter": 9729,
      "minFilter": 9987,
      "wrapS": 10497,
      "wrapT": 10497
    }
  ],
  "scene": 0,
  "scenes": [
    {
      "name": "Sketchfab_Scene",
      "nodes": [
        0
      ]
    }
  ],
  "textures": [
    {
      "sampler": 0,
      "source": 0
    },
    {
      "sampler": 0,
      "source": 1
    }
  ]
}
